<?xml version="1.0" encoding="UTF-8"?>
<svg xmlns="http://www.w3.org/2000/svg" xmlns:xlink="http://www.w3.org/1999/xlink" width="24pt" height="24pt" viewBox="0 0 24 24" version="1.1">
<g id="surface5096536">
<path style=" stroke:none;fill-rule:nonzero;fill:rgb(100%,100%,100%);fill-opacity:1;" d="M 21 5.75 L 21 18.25 C 21 19.765625 19.765625 21 18.25 21 L 15.5 21 L 15.5 14 L 17.308594 14 C 17.566406 14 17.78125 13.808594 17.808594 13.558594 L 17.996094 12.058594 C 18.015625 11.921875 17.96875 11.773438 17.875 11.671875 C 17.78125 11.558594 17.644531 11.5 17.5 11.5 L 15.5 11.5 L 15.5 9.75 C 15.5 9.199219 15.949219 8.75 16.5 8.75 L 17.5 8.75 C 17.773438 8.75 18 8.523438 18 8.25 L 18 6.558594 C 18 6.304688 17.800781 6.089844 17.546875 6.066406 C 17.515625 6.058594 16.808594 6 15.914062 6 C 13.714844 6 12.5 7.308594 12.5 9.683594 L 12.5 11.5 L 10.5 11.5 C 10.226562 11.5 10 11.726562 10 12 L 10 13.5 C 10 13.773438 10.226562 14 10.5 14 L 12.5 14 L 12.5 21 L 5.75 21 C 4.234375 21 3 19.765625 3 18.25 L 3 5.75 C 3 4.234375 4.234375 3 5.75 3 L 18.25 3 C 19.765625 3 21 4.234375 21 5.75 Z M 21 5.75 "/>
</g>
</svg>
